<svg width="80" height="40" viewBox="0 0 80 40" fill="none" xmlns="http://www.w3.org/2000/svg">
<rect width="80" height="40" rx="20" fill="white"/>
<path d="M28 19.7137C28 19.032 28.418 18.4687 28.9603 18.3795L29.1111 18.3672L48.643 18.3683L41.5867 9.85233C41.1518 9.32763 41.1503 8.4751 41.5833 7.94815C41.9769 7.4691 42.5941 7.42403 43.0298 7.814L43.1546 7.94405L52.1176 18.7588C52.1749 18.828 52.2247 18.9028 52.267 18.9819C52.2789 19.0057 52.2911 19.03 52.3026 19.0548C52.3132 19.0761 52.3227 19.0982 52.3318 19.1206C52.3443 19.1531 52.3566 19.1867 52.3677 19.2209C52.3767 19.2474 52.3843 19.2731 52.3912 19.299C52.3994 19.3311 52.4073 19.3653 52.4142 19.4001C52.4192 19.4244 52.4233 19.4477 52.4268 19.4712C52.4317 19.506 52.4359 19.5421 52.4389 19.5787C52.4415 19.6065 52.4431 19.6341 52.4439 19.6618C52.4442 19.6785 52.4444 19.6961 52.4444 19.7137L52.4439 19.7658C52.443 19.7923 52.4415 19.8187 52.4394 19.845L52.4444 19.7137C52.4444 19.7986 52.438 19.8818 52.4255 19.9624C52.4226 19.9816 52.4192 20.0014 52.4154 20.0211C52.4075 20.0616 52.3984 20.1006 52.3879 20.1389C52.3827 20.1579 52.3767 20.1782 52.3703 20.1984C52.3573 20.2389 52.3432 20.2775 52.3277 20.3151C52.3205 20.3328 52.3124 20.3514 52.3039 20.3697C52.2901 20.3996 52.2758 20.428 52.2606 20.4557C52.25 20.4753 52.2381 20.4957 52.2258 20.5158L52.2162 20.5313C52.1863 20.5787 52.1538 20.6236 52.119 20.6658L52.1177 20.667L43.1547 31.4836C42.7199 32.0083 42.0164 32.0065 41.5834 31.4796C41.1897 31.0006 41.1551 30.2525 41.4788 29.7262L41.5866 29.5755L48.64 21.0612L29.1111 21.0601C28.4975 21.0601 28 20.4573 28 19.7137Z" fill="#F2C938"/>
</svg>
