<svg width="80" height="40" viewBox="0 0 80 40" fill="none" xmlns="http://www.w3.org/2000/svg">
<rect width="80" height="40" rx="20" fill="#222224"/>
<path d="M52.4453 19.7137C52.4453 19.032 52.0273 18.4687 51.485 18.3795L51.3342 18.3672L31.8023 18.3683L38.8586 9.85233C39.2935 9.32763 39.295 8.4751 38.862 7.94815C38.4684 7.4691 37.8512 7.42403 37.4155 7.814L37.2907 7.94405L28.3277 18.7588C28.2704 18.828 28.2206 18.9028 28.1783 18.9819C28.1664 19.0057 28.1543 19.03 28.1427 19.0548C28.1321 19.0761 28.1226 19.0982 28.1135 19.1206C28.101 19.1531 28.0887 19.1867 28.0776 19.2209C28.0686 19.2474 28.061 19.2731 28.0541 19.299C28.046 19.3311 28.038 19.3653 28.0312 19.4001C28.0261 19.4244 28.022 19.4477 28.0185 19.4712C28.0136 19.506 28.0094 19.5421 28.0064 19.5787C28.0038 19.6065 28.0022 19.6341 28.0014 19.6618C28.0011 19.6785 28.0009 19.6961 28.0009 19.7137L28.0014 19.7658C28.0023 19.7923 28.0038 19.8187 28.0059 19.845L28.0009 19.7137C28.0009 19.7986 28.0074 19.8818 28.0198 19.9624C28.0227 19.9816 28.0261 20.0014 28.0299 20.0211C28.0378 20.0616 28.0469 20.1006 28.0574 20.1389C28.0626 20.1579 28.0686 20.1782 28.075 20.1984C28.088 20.2389 28.1021 20.2775 28.1176 20.3151C28.1248 20.3328 28.1329 20.3514 28.1414 20.3697C28.1552 20.3996 28.1696 20.428 28.1847 20.4557C28.1954 20.4753 28.2072 20.4957 28.2195 20.5158L28.2291 20.5313C28.2591 20.5787 28.2915 20.6236 28.3263 20.6658L28.3276 20.667L37.2906 31.4836C37.7254 32.0083 38.4289 32.0065 38.8619 31.4796C39.2556 31.0006 39.2902 30.2525 38.9665 29.7262L38.8587 29.5755L31.8053 21.0612L51.3342 21.0601C51.9479 21.0601 52.4453 20.4573 52.4453 19.7137Z" fill="white"/>
</svg>
