<svg width="114" height="238" viewBox="0 0 114 238" fill="none" xmlns="http://www.w3.org/2000/svg">
<path opacity="0.5" fill-rule="evenodd" clip-rule="evenodd" d="M195.852 66.4646C194.748 68.3777 192.301 69.0332 190.388 67.9287C188.475 66.8241 187.82 64.3777 188.924 62.4646C190.029 60.5514 192.475 59.8959 194.388 61.0005C196.301 62.105 196.957 64.5514 195.852 66.4646ZM112.714 18.4645C111.609 20.3777 109.163 21.0332 107.25 19.9286C105.336 18.8241 104.681 16.3777 105.785 14.4645C106.89 12.5514 109.336 11.8959 111.25 13.0004C113.163 14.105 113.818 16.5514 112.714 18.4645ZM91.9285 6.46458C90.824 8.37775 88.3776 9.03325 86.4644 7.92868C84.5513 6.82411 83.8958 4.37775 85.0003 2.46458C86.1049 0.551408 88.5513 -0.104093 90.4644 1.00048C92.3776 2.10505 93.0331 4.55141 91.9285 6.46458ZM128.033 31.9287C129.946 33.0333 132.392 32.3778 133.497 30.4646C134.601 28.5514 133.946 26.105 132.033 25.0005C130.12 23.8959 127.673 24.5514 126.569 26.4646C125.464 28.3778 126.12 30.8241 128.033 31.9287ZM154.282 42.4645C153.178 44.3777 150.731 45.0332 148.818 43.9286C146.905 42.8241 146.249 40.3777 147.354 38.4645C148.458 36.5514 150.905 35.8959 152.818 37.0004C154.731 38.105 155.387 40.5514 154.282 42.4645ZM169.603 55.9287C171.516 57.0332 173.963 56.3777 175.067 54.4646C176.172 52.5514 175.516 50.105 173.603 49.0005C171.69 47.8959 169.244 48.5514 168.139 50.4646C167.034 52.3777 167.69 54.8241 169.603 55.9287ZM211.171 79.9287C213.085 81.0332 215.531 80.3777 216.636 78.4646C217.74 76.5514 217.085 74.105 215.171 73.0005C213.258 71.8959 210.812 72.5514 209.707 74.4646C208.603 76.3777 209.258 78.8241 211.171 79.9287ZM237.421 90.4646C236.316 92.3777 233.87 93.0332 231.957 91.9287C230.043 90.8241 229.388 88.3777 230.492 86.4646C231.597 84.5514 234.043 83.8959 235.957 85.0005C237.87 86.105 238.525 88.5514 237.421 90.4646ZM74.4644 28.7129C76.3776 29.8174 78.824 29.1619 79.9285 27.2488C81.0331 25.3356 80.3776 22.8892 78.4644 21.7847C76.5513 20.6801 74.1049 21.3356 73.0003 23.2488C71.8958 25.1619 72.5513 27.6083 74.4644 28.7129ZM100.714 39.2487C99.6091 41.1619 97.1628 41.8174 95.2496 40.7128C93.3364 39.6083 92.6809 37.1619 93.7855 35.2487C94.8901 33.3356 97.3364 32.6801 99.2496 33.7846C101.163 34.8892 101.818 37.3356 100.714 39.2487ZM116.033 52.7129C117.946 53.8174 120.392 53.1619 121.497 51.2488C122.601 49.3356 121.946 46.8892 120.033 45.7847C118.12 44.6801 115.673 45.3356 114.569 47.2488C113.464 49.1619 114.12 51.6083 116.033 52.7129ZM142.282 63.2487C141.178 65.1619 138.731 65.8174 136.818 64.7128C134.905 63.6083 134.249 61.1619 135.354 59.2487C136.458 57.3356 138.905 56.6801 140.818 57.7846C142.731 58.8892 143.387 61.3356 142.282 63.2487ZM157.603 76.7128C159.516 77.8174 161.963 77.1619 163.067 75.2487C164.172 73.3356 163.516 70.8892 161.603 69.7846C159.69 68.6801 157.244 69.3356 156.139 71.2487C155.034 73.1619 155.69 75.6083 157.603 76.7128ZM183.852 87.2487C182.748 89.1619 180.301 89.8174 178.388 88.7128C176.475 87.6083 175.82 85.1619 176.924 83.2487C178.029 81.3355 180.475 80.68 182.388 81.7846C184.301 82.8892 184.957 85.3355 183.852 87.2487ZM199.171 100.713C201.085 101.817 203.531 101.162 204.636 99.2487C205.74 97.3356 205.085 94.8892 203.171 93.7846C201.258 92.6801 198.812 93.3356 197.707 95.2487C196.603 97.1619 197.258 99.6083 199.171 100.713ZM225.421 111.249C224.316 113.162 221.87 113.817 219.957 112.713C218.043 111.608 217.388 109.162 218.493 107.249C219.597 105.336 222.043 104.68 223.957 105.785C225.87 106.889 226.525 109.336 225.421 111.249ZM62.4644 49.498C64.3776 50.6026 66.824 49.9471 67.9285 48.0339C69.0331 46.1208 68.3776 43.6744 66.4644 42.5698C64.5513 41.4653 62.1049 42.1208 61.0003 44.0339C59.8958 45.9471 60.5513 48.3935 62.4644 49.498ZM88.7137 60.0339C87.6091 61.9471 85.1628 62.6026 83.2496 61.498C81.3364 60.3934 80.6809 57.9471 81.7855 56.0339C82.8901 54.1207 85.3364 53.4652 87.2496 54.5698C89.1628 55.6744 89.8183 58.1207 88.7137 60.0339ZM104.033 73.498C105.946 74.6026 108.392 73.9471 109.497 72.0339C110.601 70.1207 109.946 67.6744 108.033 66.5698C106.12 65.4652 103.673 66.1207 102.569 68.0339C101.464 69.9471 102.12 72.3935 104.033 73.498ZM130.282 84.0339C129.177 85.9471 126.731 86.6026 124.818 85.498C122.905 84.3934 122.249 81.9471 123.354 80.0339C124.458 78.1207 126.905 77.4652 128.818 78.5698C130.731 79.6744 131.387 82.1207 130.282 84.0339ZM145.603 97.498C147.516 98.6026 149.963 97.9471 151.067 96.0339C152.172 94.1207 151.516 91.6744 149.603 90.5698C147.69 89.4652 145.244 90.1207 144.139 92.0339C143.034 93.9471 143.69 96.3935 145.603 97.498ZM171.852 108.034C170.748 109.947 168.301 110.603 166.388 109.498C164.475 108.393 163.82 105.947 164.924 104.034C166.029 102.121 168.475 101.465 170.388 102.57C172.301 103.674 172.957 106.121 171.852 108.034ZM187.171 121.498C189.085 122.603 191.531 121.947 192.636 120.034C193.74 118.121 193.085 115.674 191.171 114.57C189.258 113.465 186.812 114.121 185.707 116.034C184.603 117.947 185.258 120.393 187.171 121.498ZM213.421 132.034C212.316 133.947 209.87 134.603 207.957 133.498C206.043 132.393 205.388 129.947 206.493 128.034C207.597 126.121 210.043 125.465 211.957 126.57C213.87 127.674 214.525 130.121 213.421 132.034ZM50.4645 70.2822C52.3776 71.3867 54.824 70.7312 55.9286 68.8181C57.0331 66.9049 56.3776 64.4585 54.4645 63.354C52.5513 62.2494 50.1049 62.9049 49.0004 64.8181C47.8958 66.7312 48.5513 69.1776 50.4645 70.2822ZM76.7137 80.8181C75.6091 82.7313 73.1628 83.3868 71.2496 82.2822C69.3364 81.1776 68.6809 78.7313 69.7855 76.8181C70.8901 74.9049 73.3364 74.2494 75.2496 75.354C77.1628 76.4586 77.8183 78.9049 76.7137 80.8181ZM92.0328 94.2822C93.946 95.3867 96.3923 94.7312 97.4969 92.8181C98.6015 90.9049 97.946 88.4585 96.0328 87.354C94.1196 86.2494 91.6733 86.9049 90.5687 88.8181C89.4641 90.7312 90.1196 93.1776 92.0328 94.2822ZM118.282 104.818C117.177 106.731 114.731 107.387 112.818 106.282C110.905 105.178 110.249 102.731 111.354 100.818C112.458 98.9049 114.905 98.2494 116.818 99.354C118.731 100.459 119.387 102.905 118.282 104.818ZM133.603 118.282C135.516 119.387 137.963 118.731 139.067 116.818C140.172 114.905 139.516 112.459 137.603 111.354C135.69 110.249 133.244 110.905 132.139 112.818C131.034 114.731 131.69 117.178 133.603 118.282ZM159.852 128.818C158.748 130.731 156.301 131.387 154.388 130.282C152.475 129.178 151.82 126.731 152.924 124.818C154.029 122.905 156.475 122.249 158.388 123.354C160.301 124.459 160.957 126.905 159.852 128.818ZM175.171 142.282C177.085 143.387 179.531 142.731 180.636 140.818C181.74 138.905 181.085 136.459 179.171 135.354C177.258 134.249 174.812 134.905 173.707 136.818C172.603 138.731 173.258 141.178 175.171 142.282ZM201.421 152.818C200.316 154.731 197.87 155.387 195.957 154.282C194.043 153.178 193.388 150.731 194.493 148.818C195.597 146.905 198.043 146.249 199.957 147.354C201.87 148.459 202.525 150.905 201.421 152.818ZM38.4645 91.0673C40.3776 92.1719 42.824 91.5164 43.9286 89.6032C45.0331 87.6901 44.3776 85.2437 42.4645 84.1391C40.5513 83.0346 38.1049 83.6901 37.0004 85.6032C35.8958 87.5164 36.5513 89.9628 38.4645 91.0673ZM64.7137 101.603C63.6091 103.516 61.1628 104.172 59.2496 103.067C57.3364 101.963 56.6809 99.5164 57.7855 97.6033C58.89 95.6901 61.3364 95.0346 63.2496 96.1392C65.1628 97.2437 65.8183 99.6901 64.7137 101.603ZM80.0328 115.067C81.946 116.172 84.3923 115.516 85.4969 113.603C86.6015 111.69 85.946 109.244 84.0328 108.139C82.1196 107.035 79.6733 107.69 78.5687 109.603C77.4641 111.516 78.1196 113.963 80.0328 115.067ZM106.282 125.603C105.177 127.516 102.731 128.172 100.818 127.067C98.9048 125.963 98.2493 123.516 99.3539 121.603C100.458 119.69 102.905 119.035 104.818 120.139C106.731 121.244 107.387 123.69 106.282 125.603ZM121.603 139.067C123.516 140.172 125.963 139.516 127.067 137.603C128.172 135.69 127.516 133.244 125.603 132.139C123.69 131.035 121.244 131.69 120.139 133.603C119.034 135.516 119.69 137.963 121.603 139.067ZM147.852 149.603C146.748 151.516 144.301 152.172 142.388 151.067C140.475 149.963 139.82 147.516 140.924 145.603C142.029 143.69 144.475 143.035 146.388 144.139C148.301 145.244 148.957 147.69 147.852 149.603ZM163.171 163.067C165.085 164.172 167.531 163.516 168.636 161.603C169.74 159.69 169.085 157.244 167.171 156.139C165.258 155.035 162.812 155.69 161.707 157.603C160.603 159.516 161.258 161.963 163.171 163.067ZM189.421 173.603C188.316 175.516 185.87 176.172 183.957 175.067C182.043 173.963 181.388 171.516 182.492 169.603C183.597 167.69 186.043 167.035 187.957 168.139C189.87 169.244 190.525 171.69 189.421 173.603ZM26.4645 111.852C28.3776 112.956 30.824 112.301 31.9286 110.387C33.0331 108.474 32.3776 106.028 30.4645 104.923C28.5513 103.819 26.1049 104.474 25.0003 106.387C23.8958 108.301 24.5513 110.747 26.4645 111.852ZM52.7137 122.387C51.6091 124.301 49.1627 124.956 47.2496 123.852C45.3364 122.747 44.6809 120.301 45.7855 118.387C46.89 116.474 49.3364 115.819 51.2496 116.923C53.1627 118.028 53.8182 120.474 52.7137 122.387ZM68.0328 135.852C69.946 136.956 72.3923 136.301 73.4969 134.387C74.6015 132.474 73.946 130.028 72.0328 128.923C70.1196 127.819 67.6733 128.474 66.5687 130.387C65.4641 132.301 66.1196 134.747 68.0328 135.852ZM94.2821 146.387C93.1775 148.301 90.7311 148.956 88.8179 147.852C86.9048 146.747 86.2493 144.301 87.3538 142.387C88.4584 140.474 90.9048 139.819 92.8179 140.923C94.7311 142.028 95.3866 144.474 94.2821 146.387ZM109.603 159.852C111.516 160.956 113.963 160.301 115.067 158.387C116.172 156.474 115.516 154.028 113.603 152.923C111.69 151.819 109.244 152.474 108.139 154.387C107.034 156.301 107.69 158.747 109.603 159.852ZM135.852 170.387C134.748 172.301 132.301 172.956 130.388 171.852C128.475 170.747 127.82 168.301 128.924 166.387C130.029 164.474 132.475 163.819 134.388 164.923C136.301 166.028 136.957 168.474 135.852 170.387ZM151.171 183.852C153.085 184.956 155.531 184.301 156.636 182.387C157.74 180.474 157.085 178.028 155.171 176.923C153.258 175.819 150.812 176.474 149.707 178.387C148.603 180.301 149.258 182.747 151.171 183.852ZM177.421 194.387C176.316 196.301 173.87 196.956 171.957 195.852C170.043 194.747 169.388 192.301 170.493 190.387C171.597 188.474 174.043 187.819 175.957 188.923C177.87 190.028 178.525 192.474 177.421 194.387ZM14.4644 132.637C16.3776 133.741 18.824 133.086 19.9285 131.173C21.0331 129.259 20.3776 126.813 18.4644 125.708C16.5513 124.604 14.1049 125.259 13.0003 127.173C11.8958 129.086 12.5513 131.532 14.4644 132.637ZM40.7137 143.173C39.6091 145.086 37.1628 145.741 35.2496 144.637C33.3364 143.532 32.6809 141.086 33.7855 139.173C34.8901 137.259 37.3364 136.604 39.2496 137.708C41.1628 138.813 41.8183 141.259 40.7137 143.173ZM56.0328 156.637C57.946 157.741 60.3923 157.086 61.4969 155.173C62.6015 153.259 61.946 150.813 60.0328 149.708C58.1196 148.604 55.6733 149.259 54.5687 151.173C53.4641 153.086 54.1196 155.532 56.0328 156.637ZM82.2821 167.173C81.1775 169.086 78.7311 169.741 76.818 168.637C74.9048 167.532 74.2493 165.086 75.3539 163.173C76.4584 161.259 78.9048 160.604 80.818 161.708C82.7311 162.813 83.3866 165.259 82.2821 167.173ZM97.6031 180.637C99.5163 181.741 101.963 181.086 103.067 179.173C104.172 177.259 103.516 174.813 101.603 173.708C99.6899 172.604 97.2436 173.259 96.139 175.173C95.0344 177.086 95.6899 179.532 97.6031 180.637ZM123.852 191.173C122.748 193.086 120.301 193.741 118.388 192.637C116.475 191.532 115.82 189.086 116.924 187.173C118.029 185.259 120.475 184.604 122.388 185.708C124.301 186.813 124.957 189.259 123.852 191.173ZM139.171 204.637C141.085 205.741 143.531 205.086 144.636 203.173C145.74 201.259 145.085 198.813 143.171 197.708C141.258 196.604 138.812 197.259 137.707 199.173C136.603 201.086 137.258 203.532 139.171 204.637ZM165.421 215.173C164.316 217.086 161.87 217.741 159.957 216.637C158.043 215.532 157.388 213.086 158.492 211.173C159.597 209.259 162.043 208.604 163.957 209.708C165.87 210.813 166.525 213.259 165.421 215.173ZM2.46444 153.421C4.37761 154.525 6.82398 153.87 7.92854 151.957C9.03311 150.044 8.37761 147.597 6.46444 146.493C4.55127 145.388 2.10491 146.044 1.00034 147.957C-0.104227 149.87 0.551273 152.316 2.46444 153.421ZM28.7137 163.957C27.6091 165.87 25.1628 166.525 23.2496 165.421C21.3364 164.316 20.6809 161.87 21.7855 159.957C22.8901 158.044 25.3364 157.388 27.2496 158.493C29.1628 159.597 29.8183 162.044 28.7137 163.957ZM44.0328 177.421C45.946 178.525 48.3923 177.87 49.4969 175.957C50.6015 174.044 49.946 171.597 48.0328 170.493C46.1196 169.388 43.6733 170.044 42.5687 171.957C41.4641 173.87 42.1196 176.316 44.0328 177.421ZM70.2821 187.957C69.1775 189.87 66.7311 190.525 64.818 189.421C62.9048 188.316 62.2493 185.87 63.3539 183.957C64.4584 182.044 66.9048 181.388 68.818 182.493C70.7311 183.597 71.3866 186.044 70.2821 187.957ZM85.6031 201.421C87.5163 202.525 89.9626 201.87 91.0672 199.957C92.1718 198.044 91.5163 195.597 89.6031 194.493C87.6899 193.388 85.2436 194.044 84.139 195.957C83.0344 197.87 83.6899 200.316 85.6031 201.421ZM111.852 211.957C110.748 213.87 108.301 214.525 106.388 213.421C104.475 212.316 103.82 209.87 104.924 207.957C106.029 206.044 108.475 205.388 110.388 206.493C112.301 207.597 112.957 210.044 111.852 211.957ZM127.171 225.421C129.085 226.525 131.531 225.87 132.636 223.957C133.74 222.044 133.085 219.597 131.171 218.493C129.258 217.388 126.812 218.044 125.707 219.957C124.603 221.87 125.258 224.316 127.171 225.421ZM153.421 235.957C152.316 237.87 149.87 238.525 147.957 237.421C146.043 236.316 145.388 233.87 146.493 231.957C147.597 230.044 150.043 229.388 151.957 230.493C153.87 231.597 154.525 234.044 153.421 235.957Z" fill="url(#paint0_linear_1_371)"/>
<defs>
<linearGradient id="paint0_linear_1_371" x1="-1.00002" y1="151.421" x2="239.421" y2="87.0008" gradientUnits="userSpaceOnUse">
<stop stop-color="#E5E5E5"/>
<stop offset="1" stop-color="#E5E5E5" stop-opacity="0"/>
</linearGradient>
</defs>
</svg>
