<svg width="34" height="34" viewBox="0 0 34 34" fill="none" xmlns="http://www.w3.org/2000/svg">
<circle cx="16.7191" cy="16.811" r="16.5552" fill="#1B1B1B"/>
<path fill-rule="evenodd" clip-rule="evenodd" d="M13.8584 8.03111C14.7411 7.99048 15.0225 7.98145 17.271 7.98145C19.5195 7.98145 19.8009 7.99123 20.6829 8.03111C21.5648 8.07099 22.1668 8.21171 22.6936 8.41564C23.2452 8.62409 23.7456 8.94992 24.1595 9.37133C24.5809 9.78446 24.906 10.2841 25.1136 10.8365C25.3183 11.3632 25.4583 11.9652 25.4989 12.8457C25.5396 13.7299 25.5486 14.0113 25.5486 16.259C25.5486 18.5075 25.5388 18.789 25.4989 19.6717C25.459 20.5521 25.3183 21.1541 25.1136 21.6809C24.9059 22.2333 24.5803 22.7338 24.1595 23.1475C23.7456 23.5689 23.2452 23.894 22.6936 24.1017C22.1668 24.3064 21.5648 24.4463 20.6844 24.487C19.8009 24.5276 19.5195 24.5366 17.271 24.5366C15.0225 24.5366 14.7411 24.5268 13.8584 24.487C12.9779 24.4471 12.3759 24.3064 11.8492 24.1017C11.2968 23.894 10.7963 23.5683 10.3825 23.1475C9.96142 22.7341 9.63553 22.2339 9.42761 21.6816C9.22368 21.1549 9.08371 20.5528 9.04307 19.6724C9.00244 18.7882 8.99341 18.5068 8.99341 16.259C8.99341 14.0105 9.00319 13.7291 9.04307 12.8472C9.08296 11.9652 9.22368 11.3632 9.42761 10.8365C9.63584 10.2842 9.96198 9.78394 10.3833 9.37058C10.7964 8.94955 11.2964 8.62367 11.8484 8.41564C12.3752 8.21171 12.9772 8.07175 13.8576 8.03111H13.8584ZM20.6159 9.52108C19.743 9.48119 19.4811 9.47292 17.271 9.47292C15.0609 9.47292 14.799 9.48119 13.9261 9.52108C13.1187 9.55795 12.6807 9.69265 12.3887 9.80628C12.0027 9.95678 11.7265 10.1351 11.4368 10.4248C11.1622 10.692 10.9508 11.0173 10.8182 11.3768C10.7046 11.6687 10.5699 12.1067 10.533 12.9141C10.4932 13.787 10.4849 14.0489 10.4849 16.259C10.4849 18.4692 10.4932 18.731 10.533 19.6039C10.5699 20.4114 10.7046 20.8493 10.8182 21.1413C10.9507 21.5003 11.1621 21.8261 11.4368 22.0932C11.7039 22.3679 12.0298 22.5794 12.3887 22.7118C12.6807 22.8254 13.1187 22.9601 13.9261 22.997C14.799 23.0369 15.0601 23.0452 17.271 23.0452C19.4819 23.0452 19.743 23.0369 20.6159 22.997C21.4233 22.9601 21.8613 22.8254 22.1533 22.7118C22.5393 22.5613 22.8155 22.3829 23.1052 22.0932C23.3799 21.8261 23.5913 21.5003 23.7238 21.1413C23.8374 20.8493 23.9721 20.4114 24.009 19.6039C24.0488 18.731 24.0571 18.4692 24.0571 16.259C24.0571 14.0489 24.0488 13.787 24.009 12.9141C23.9721 12.1067 23.8374 11.6687 23.7238 11.3768C23.5733 10.9907 23.3949 10.7146 23.1052 10.4248C22.838 10.1502 22.5127 9.93888 22.1533 9.80628C21.8613 9.69265 21.4233 9.55795 20.6159 9.52108ZM16.2137 18.8108C16.8042 19.0566 17.4617 19.0898 18.0739 18.9046C18.6861 18.7195 19.215 18.3276 19.5704 17.7958C19.9257 17.2641 20.0854 16.6254 20.0222 15.989C19.959 15.3525 19.6768 14.7578 19.2238 14.3063C18.935 14.0177 18.5858 13.7967 18.2014 13.6592C17.8169 13.5218 17.4068 13.4713 17.0005 13.5113C16.5942 13.5514 16.2018 13.6811 15.8516 13.891C15.5014 14.1009 15.2022 14.3859 14.9753 14.7253C14.7485 15.0648 14.5997 15.4503 14.5398 15.8542C14.4798 16.258 14.5102 16.6701 14.6286 17.0608C14.747 17.4516 14.9506 17.8112 15.2247 18.1138C15.4988 18.4164 15.8366 18.6544 16.2137 18.8108ZM14.2625 13.2505C14.6576 12.8554 15.1266 12.542 15.6428 12.3282C16.159 12.1144 16.7123 12.0043 17.271 12.0043C17.8297 12.0043 18.383 12.1144 18.8992 12.3282C19.4154 12.542 19.8844 12.8554 20.2795 13.2505C20.6746 13.6456 20.988 14.1146 21.2018 14.6308C21.4157 15.147 21.5257 15.7003 21.5257 16.259C21.5257 16.8178 21.4157 17.371 21.2018 17.8872C20.988 18.4034 20.6746 18.8725 20.2795 19.2676C19.4816 20.0655 18.3994 20.5137 17.271 20.5137C16.1426 20.5137 15.0604 20.0655 14.2625 19.2676C13.4646 18.4697 13.0163 17.3875 13.0163 16.259C13.0163 15.1306 13.4646 14.0484 14.2625 13.2505ZM22.4693 12.638C22.5672 12.5456 22.6456 12.4345 22.6998 12.3114C22.754 12.1882 22.783 12.0554 22.7849 11.9208C22.7869 11.7862 22.7618 11.6526 22.7112 11.5279C22.6606 11.4032 22.5855 11.2899 22.4904 11.1947C22.3952 11.0995 22.2819 11.0244 22.1572 10.9738C22.0325 10.9232 21.8989 10.8981 21.7643 10.9001C21.6297 10.9021 21.4969 10.931 21.3737 10.9852C21.2505 11.0394 21.1394 11.1178 21.0471 11.2157C20.8675 11.4061 20.7691 11.659 20.7729 11.9208C20.7768 12.1825 20.8824 12.4324 21.0675 12.6175C21.2526 12.8026 21.5026 12.9083 21.7643 12.9121C22.026 12.9159 22.2789 12.8176 22.4693 12.638Z" fill="white"/>
</svg>
