<svg width="25" height="25" viewBox="0 0 25 25" fill="none" xmlns="http://www.w3.org/2000/svg">
<path d="M24.4453 12.7137C24.4453 12.032 24.0273 11.4687 23.485 11.3795L23.3342 11.3672L3.80235 11.3683L10.8586 2.85233C11.2935 2.32763 11.295 1.4751 10.862 0.948147C10.4684 0.469097 9.85119 0.424028 9.41552 0.814001L9.29066 0.944048L0.327702 11.7588C0.270382 11.828 0.220596 11.9028 0.178341 11.9819C0.166407 12.0057 0.154257 12.03 0.14274 12.0548C0.132147 12.0761 0.122574 12.0982 0.113543 12.1206C0.100998 12.1531 0.0887432 12.1867 0.0776157 12.2209C0.0685749 12.2474 0.0610256 12.2731 0.0541401 12.299C0.0459538 12.3311 0.0380001 12.3653 0.0311584 12.4001C0.0260715 12.4244 0.0220432 12.4477 0.0185299 12.4712C0.0135899 12.506 0.00938416 12.5421 0.00638199 12.5787C0.00379181 12.6065 0.0022316 12.6341 0.00136948 12.6618C0.00114632 12.6785 0.000865936 12.6961 0.000865936 12.7137L0.00142288 12.7658C0.00227547 12.7923 0.00376511 12.8187 0.00589371 12.845L0.000865936 12.7137C0.000865936 12.7986 0.00736237 12.8818 0.019783 12.9624C0.0226631 12.9816 0.0260944 13.0014 0.0298958 13.0211C0.0377884 13.0616 0.0469093 13.1006 0.0574112 13.1389C0.0625668 13.1579 0.068573 13.1782 0.0749912 13.1984C0.0879745 13.2389 0.102087 13.2775 0.117613 13.3151C0.124826 13.3328 0.132904 13.3514 0.141363 13.3697C0.155249 13.3996 0.169554 13.428 0.184679 13.4557C0.195351 13.4753 0.207169 13.4957 0.219509 13.5158L0.229124 13.5313C0.25906 13.5787 0.291534 13.6236 0.326303 13.6658L0.327637 13.667L9.2906 24.4836C9.72541 25.0083 10.4289 25.0065 10.8619 24.4796C11.2556 24.0006 11.2902 23.2525 10.9665 22.7262L10.8587 22.5755L3.80531 14.0612L23.3342 14.0601C23.9479 14.0601 24.4453 13.4573 24.4453 12.7137Z" fill="white"/>
</svg>
