<svg width="162" height="323" viewBox="0 0 162 323" fill="none" xmlns="http://www.w3.org/2000/svg">
<path opacity="0.5" fill-rule="evenodd" clip-rule="evenodd" d="M46.3265 202.462C48.3796 200.408 51.7084 200.408 53.7615 202.462C55.8146 204.515 55.8146 207.843 53.7615 209.896C51.7084 211.95 48.3796 211.95 46.3265 209.896C44.2734 207.843 44.2734 204.515 46.3265 202.462ZM135.546 291.681C137.599 289.628 140.928 289.628 142.981 291.681C145.034 293.734 145.034 297.063 142.981 299.116C140.928 301.169 137.599 301.169 135.546 299.116C133.493 297.063 133.493 293.734 135.546 291.681ZM157.852 313.986C159.905 311.933 163.234 311.933 165.287 313.986C167.34 316.039 167.34 319.368 165.287 321.421C163.234 323.474 159.905 323.474 157.852 321.421C155.799 319.368 155.799 316.039 157.852 313.986ZM120.678 269.377C118.625 267.324 115.296 267.324 113.243 269.377C111.19 271.43 111.19 274.759 113.243 276.812C115.296 278.865 118.625 278.865 120.678 276.812C122.731 274.759 122.731 271.43 120.678 269.377ZM90.9377 247.072C92.9908 245.019 96.3195 245.019 98.3726 247.072C100.426 249.125 100.426 252.454 98.3726 254.507C96.3195 256.56 92.9908 256.56 90.9377 254.507C88.8846 252.454 88.8846 249.125 90.9377 247.072ZM76.0671 224.767C74.0139 222.713 70.6852 222.713 68.6321 224.767C66.579 226.82 66.579 230.148 68.6321 232.202C70.6852 234.255 74.014 234.255 76.0671 232.202C78.1202 230.148 78.1202 226.82 76.0671 224.767ZM31.4584 180.157C29.4053 178.104 26.0765 178.104 24.0234 180.157C21.9703 182.21 21.9703 185.539 24.0234 187.592C26.0765 189.645 29.4053 189.645 31.4584 187.592C33.5115 185.539 33.5115 182.21 31.4584 180.157ZM1.71785 157.852C3.77096 155.799 7.09971 155.799 9.1528 157.852C11.2059 159.905 11.2059 163.234 9.15281 165.287C7.0997 167.34 3.77095 167.34 1.71784 165.287C-0.335246 163.234 -0.335258 159.905 1.71785 157.852ZM187.592 291.682C185.538 289.629 182.21 289.629 180.157 291.682C178.104 293.735 178.104 297.064 180.157 299.117C182.21 301.17 185.538 301.17 187.592 299.117C189.645 297.064 189.645 293.735 187.592 291.682ZM157.851 269.377C159.904 267.324 163.233 267.324 165.286 269.377C167.339 271.43 167.339 274.759 165.286 276.812C163.233 278.865 159.904 278.865 157.851 276.812C155.798 274.759 155.798 271.43 157.851 269.377ZM142.983 247.072C140.93 245.019 137.601 245.019 135.548 247.072C133.495 249.125 133.495 252.454 135.548 254.507C137.601 256.56 140.93 256.56 142.983 254.507C145.036 252.454 145.036 249.125 142.983 247.072ZM113.242 224.767C115.296 222.714 118.624 222.714 120.677 224.767C122.73 226.82 122.73 230.149 120.677 232.202C118.624 234.255 115.296 234.255 113.242 232.202C111.189 230.149 111.189 226.82 113.242 224.767ZM98.3718 202.462C96.3187 200.409 92.9899 200.409 90.9368 202.462C88.8837 204.515 88.8837 207.844 90.9368 209.897C92.9899 211.95 96.3187 211.95 98.3718 209.897C100.425 207.844 100.425 204.515 98.3718 202.462ZM68.6312 180.157C70.6843 178.104 74.0131 178.104 76.0662 180.157C78.1193 182.21 78.1193 185.539 76.0662 187.592C74.0131 189.645 70.6843 189.645 68.6312 187.592C66.5781 185.539 66.5781 182.21 68.6312 180.157ZM53.7631 157.853C51.71 155.8 48.3813 155.8 46.3282 157.853C44.275 159.906 44.2751 163.235 46.3281 165.288C48.3812 167.341 51.71 167.341 53.7631 165.288C55.8162 163.235 55.8162 159.906 53.7631 157.853ZM24.0226 135.548C26.0757 133.495 29.4045 133.495 31.4576 135.548C33.5107 137.601 33.5107 140.93 31.4576 142.983C29.4045 145.036 26.0757 145.036 24.0226 142.983C21.9695 140.93 21.9695 137.601 24.0226 135.548ZM209.897 269.376C207.844 267.323 204.515 267.323 202.462 269.376C200.409 271.429 200.409 274.758 202.462 276.811C204.515 278.864 207.844 278.864 209.897 276.811C211.95 274.758 211.95 271.429 209.897 269.376ZM180.156 247.071C182.209 245.018 185.538 245.018 187.591 247.071C189.644 249.124 189.644 252.453 187.591 254.506C185.538 256.559 182.209 256.559 180.156 254.506C178.103 252.453 178.103 249.124 180.156 247.071ZM165.288 224.767C163.235 222.714 159.906 222.714 157.853 224.767C155.8 226.82 155.8 230.149 157.853 232.202C159.906 234.255 163.235 234.255 165.288 232.202C167.341 230.149 167.341 226.82 165.288 224.767ZM135.548 202.462C137.601 200.409 140.929 200.409 142.982 202.462C145.036 204.515 145.036 207.844 142.982 209.897C140.929 211.95 137.601 211.95 135.548 209.897C133.494 207.844 133.494 204.515 135.548 202.462ZM120.677 180.157C118.624 178.104 115.295 178.104 113.242 180.157C111.189 182.21 111.189 185.539 113.242 187.592C115.295 189.645 118.624 189.645 120.677 187.592C122.73 185.539 122.73 182.21 120.677 180.157ZM90.9363 157.852C92.9894 155.798 96.3182 155.798 98.3713 157.852C100.424 159.905 100.424 163.233 98.3713 165.287C96.3182 167.34 92.9894 167.34 90.9363 165.287C88.8832 163.233 88.8832 159.905 90.9363 157.852ZM76.0682 135.547C74.0151 133.494 70.6864 133.494 68.6333 135.547C66.5802 137.6 66.5802 140.929 68.6332 142.982C70.6864 145.035 74.0151 145.035 76.0682 142.982C78.1213 140.929 78.1213 137.6 76.0682 135.547ZM46.3277 113.242C48.3808 111.189 51.7095 111.189 53.7626 113.242C55.8157 115.295 55.8157 118.624 53.7626 120.677C51.7095 122.73 48.3808 122.73 46.3277 120.677C44.2746 118.624 44.2746 115.295 46.3277 113.242ZM232.201 247.072C230.148 245.019 226.82 245.019 224.766 247.072C222.713 249.125 222.713 252.454 224.766 254.507C226.82 256.56 230.148 256.56 232.201 254.507C234.255 252.454 234.255 249.125 232.201 247.072ZM202.461 224.767C204.514 222.714 207.843 222.714 209.896 224.767C211.949 226.82 211.949 230.149 209.896 232.202C207.843 234.255 204.514 234.255 202.461 232.202C200.408 230.149 200.408 226.82 202.461 224.767ZM187.593 202.462C185.54 200.409 182.211 200.409 180.158 202.462C178.105 204.516 178.105 207.844 180.158 209.897C182.211 211.951 185.54 211.951 187.593 209.897C189.646 207.844 189.646 204.516 187.593 202.462ZM157.852 180.157C159.905 178.104 163.234 178.104 165.287 180.157C167.34 182.21 167.34 185.539 165.287 187.592C163.234 189.645 159.905 189.645 157.852 187.592C155.799 185.539 155.799 182.21 157.852 180.157ZM142.982 157.852C140.928 155.799 137.6 155.799 135.547 157.852C133.494 159.905 133.494 163.234 135.547 165.287C137.6 167.34 140.928 167.34 142.982 165.287C145.035 163.234 145.035 159.905 142.982 157.852ZM113.241 135.547C115.294 133.494 118.623 133.494 120.676 135.547C122.729 137.6 122.729 140.929 120.676 142.982C118.623 145.035 115.294 145.035 113.241 142.982C111.188 140.929 111.188 137.6 113.241 135.547ZM98.3729 113.243C96.3198 111.19 92.9911 111.19 90.938 113.243C88.8849 115.296 88.8849 118.625 90.938 120.678C92.9911 122.731 96.3198 122.731 98.3729 120.678C100.426 118.625 100.426 115.296 98.3729 113.243ZM68.6324 90.9378C70.6855 88.8847 74.0143 88.8847 76.0674 90.9378C78.1205 92.9909 78.1205 96.3197 76.0674 98.3728C74.0143 100.426 70.6855 100.426 68.6324 98.3728C66.5793 96.3197 66.5793 92.9909 68.6324 90.9378ZM254.506 224.766C252.453 222.713 249.125 222.713 247.072 224.766C245.018 226.819 245.018 230.148 247.072 232.201C249.125 234.254 252.453 234.254 254.506 232.201C256.56 230.148 256.56 226.819 254.506 224.766ZM224.766 202.461C226.819 200.408 230.148 200.408 232.201 202.461C234.254 204.514 234.254 207.843 232.201 209.896C230.148 211.949 226.819 211.949 224.766 209.896C222.713 207.843 222.713 204.514 224.766 202.461ZM209.898 180.157C207.845 178.104 204.516 178.104 202.463 180.157C200.41 182.21 200.41 185.539 202.463 187.592C204.516 189.645 207.845 189.645 209.898 187.592C211.951 185.539 211.951 182.21 209.898 180.157ZM180.157 157.852C182.21 155.799 185.539 155.799 187.592 157.852C189.645 159.905 189.645 163.234 187.592 165.287C185.539 167.34 182.21 167.34 180.157 165.287C178.104 163.234 178.104 159.905 180.157 157.852ZM165.287 135.547C163.234 133.494 159.905 133.494 157.852 135.547C155.799 137.6 155.799 140.929 157.852 142.982C159.905 145.035 163.234 145.035 165.287 142.982C167.34 140.929 167.34 137.6 165.287 135.547ZM135.546 113.242C137.599 111.189 140.928 111.189 142.981 113.242C145.034 115.295 145.034 118.624 142.981 120.677C140.928 122.73 137.599 122.73 135.546 120.677C133.493 118.624 133.493 115.295 135.546 113.242ZM120.678 90.9373C118.625 88.8842 115.296 88.8842 113.243 90.9373C111.19 92.9904 111.19 96.3191 113.243 98.3722C115.296 100.425 118.625 100.425 120.678 98.3722C122.731 96.3191 122.731 92.9904 120.678 90.9373ZM90.9375 68.6323C92.9906 66.5791 96.3194 66.5791 98.3725 68.6322C100.426 70.6853 100.426 74.0141 98.3725 76.0672C96.3193 78.1203 92.9906 78.1203 90.9375 76.0672C88.8844 74.0141 88.8844 70.6854 90.9375 68.6323ZM276.811 202.462C274.758 200.409 271.429 200.409 269.376 202.462C267.323 204.515 267.323 207.844 269.376 209.897C271.429 211.95 274.758 211.95 276.811 209.897C278.864 207.844 278.864 204.515 276.811 202.462ZM247.071 180.157C249.124 178.104 252.453 178.104 254.506 180.157C256.559 182.21 256.559 185.539 254.506 187.592C252.453 189.645 249.124 189.645 247.071 187.592C245.018 185.539 245.018 182.21 247.071 180.157ZM232.203 157.853C230.149 155.799 226.821 155.799 224.768 157.853C222.714 159.906 222.714 163.234 224.768 165.288C226.821 167.341 230.149 167.341 232.203 165.288C234.256 163.234 234.256 159.906 232.203 157.853ZM202.462 135.547C204.515 133.494 207.844 133.494 209.897 135.547C211.95 137.601 211.95 140.929 209.897 142.982C207.844 145.036 204.515 145.036 202.462 142.982C200.409 140.929 200.409 137.601 202.462 135.547ZM187.591 113.242C185.538 111.189 182.21 111.189 180.156 113.242C178.103 115.296 178.103 118.624 180.156 120.677C182.21 122.73 185.538 122.73 187.591 120.677C189.644 118.624 189.644 115.296 187.591 113.242ZM157.851 90.9374C159.904 88.8843 163.233 88.8842 165.286 90.9373C167.339 92.9904 167.339 96.3192 165.286 98.3723C163.233 100.425 159.904 100.425 157.851 98.3723C155.798 96.3192 155.798 92.9905 157.851 90.9374ZM142.983 68.633C140.93 66.5799 137.601 66.5799 135.548 68.633C133.495 70.6861 133.495 74.0148 135.548 76.0679C137.601 78.121 140.93 78.1211 142.983 76.0679C145.036 74.0148 145.036 70.6861 142.983 68.633ZM113.242 46.3279C115.295 44.2748 118.624 44.2748 120.677 46.3279C122.73 48.381 122.73 51.7098 120.677 53.7629C118.624 55.816 115.295 55.816 113.242 53.7629C111.189 51.7098 111.189 48.381 113.242 46.3279ZM299.116 180.156C297.063 178.103 293.734 178.103 291.681 180.156C289.628 182.21 289.628 185.538 291.681 187.591C293.734 189.645 297.063 189.644 299.116 187.591C301.169 185.538 301.169 182.21 299.116 180.156ZM269.376 157.851C271.429 155.798 274.758 155.798 276.811 157.851C278.864 159.904 278.864 163.233 276.811 165.286C274.758 167.339 271.429 167.339 269.376 165.286C267.323 163.233 267.323 159.904 269.376 157.851ZM254.508 135.547C252.455 133.494 249.126 133.494 247.073 135.547C245.02 137.6 245.02 140.929 247.073 142.982C249.126 145.035 252.455 145.035 254.508 142.982C256.561 140.929 256.561 137.6 254.508 135.547ZM224.767 113.242C226.82 111.189 230.149 111.189 232.202 113.242C234.255 115.295 234.255 118.624 232.202 120.677C230.149 122.73 226.82 122.73 224.767 120.677C222.714 118.624 222.714 115.295 224.767 113.242ZM209.896 90.9368C207.843 88.8837 204.515 88.8837 202.462 90.9368C200.408 92.9899 200.408 96.3187 202.461 98.3718C204.515 100.425 207.843 100.425 209.896 98.3718C211.95 96.3187 211.95 92.9899 209.896 90.9368ZM180.156 68.6318C182.209 66.5787 185.538 66.5787 187.591 68.6318C189.644 70.6849 189.644 74.0137 187.591 76.0668C185.538 78.1199 182.209 78.1199 180.156 76.0668C178.103 74.0136 178.103 70.6849 180.156 68.6318ZM165.288 46.3274C163.235 44.2743 159.906 44.2743 157.853 46.3274C155.8 48.3805 155.8 51.7092 157.853 53.7623C159.906 55.8154 163.235 55.8154 165.288 53.7623C167.341 51.7092 167.341 48.3805 165.288 46.3274ZM135.547 24.0223C137.6 21.9692 140.929 21.9692 142.982 24.0223C145.035 26.0754 145.035 29.4042 142.982 31.4573C140.929 33.5104 137.6 33.5104 135.547 31.4573C133.494 29.4042 133.494 26.0754 135.547 24.0223ZM321.421 157.852C319.368 155.799 316.039 155.799 313.986 157.852C311.933 159.905 311.933 163.234 313.986 165.287C316.039 167.34 319.368 167.34 321.421 165.287C323.474 163.234 323.474 159.905 321.421 157.852ZM291.68 135.547C293.734 133.494 297.062 133.494 299.115 135.547C301.169 137.6 301.169 140.929 299.115 142.982C297.062 145.035 293.734 145.035 291.68 142.982C289.627 140.929 289.627 137.6 291.68 135.547ZM276.812 113.243C274.759 111.19 271.43 111.19 269.377 113.243C267.324 115.296 267.324 118.625 269.377 120.678C271.431 122.731 274.759 122.731 276.812 120.678C278.865 118.625 278.865 115.296 276.812 113.243ZM247.072 90.9376C249.125 88.8845 252.454 88.8845 254.507 90.9376C256.56 92.9907 256.56 96.3195 254.507 98.3725C252.454 100.426 249.125 100.426 247.072 98.3725C245.019 96.3194 245.019 92.9907 247.072 90.9376ZM232.201 68.6325C230.148 66.5794 226.819 66.5794 224.766 68.6325C222.713 70.6856 222.713 74.0144 224.766 76.0675C226.819 78.1206 230.148 78.1206 232.201 76.0675C234.254 74.0144 234.254 70.6856 232.201 68.6325ZM202.461 46.3274C204.514 44.2743 207.843 44.2743 209.896 46.3274C211.949 48.3805 211.949 51.7093 209.896 53.7624C207.843 55.8155 204.514 55.8155 202.461 53.7624C200.408 51.7093 200.408 48.3805 202.461 46.3274ZM187.593 24.023C185.539 21.97 182.211 21.97 180.158 24.023C178.104 26.0762 178.104 29.4049 180.158 31.458C182.211 33.5111 185.539 33.5111 187.593 31.458C189.646 29.4049 189.646 26.0762 187.593 24.023ZM157.852 1.71798C159.905 -0.335107 163.234 -0.335107 165.287 1.71798C167.34 3.77109 167.34 7.09985 165.287 9.15294C163.234 11.206 159.905 11.206 157.852 9.15294C155.799 7.09985 155.799 3.77109 157.852 1.71798Z" fill="url(#paint0_linear_12_1233)"/>
<defs>
<linearGradient id="paint0_linear_12_1233" x1="325.139" y1="161.569" x2="-2.0002" y2="161.569" gradientUnits="userSpaceOnUse">
<stop stop-color="#E5E5E5"/>
<stop offset="1" stop-color="#E5E5E5" stop-opacity="0"/>
</linearGradient>
</defs>
</svg>
