<svg width="33" height="33" viewBox="0 0 33 33" fill="none" xmlns="http://www.w3.org/2000/svg">
<path d="M21.4225 16.4999C21.4225 19.2224 19.2225 21.4224 16.5 21.4224C13.7775 21.4224 11.5775 19.2224 11.5775 16.4999C11.5775 13.7774 13.7775 11.5774 16.5 11.5774C19.2225 11.5774 21.4225 13.7774 21.4225 16.4999Z" stroke="white" stroke-width="1.5" stroke-linecap="round" stroke-linejoin="round"/>
<path d="M16.5 27.8712C21.3538 27.8712 25.8775 25.0112 29.0263 20.0612C30.2638 18.1225 30.2638 14.8637 29.0263 12.925C25.8775 7.97499 21.3538 5.11499 16.5 5.11499C11.6463 5.11499 7.12253 7.97499 3.97378 12.925C2.73628 14.8637 2.73628 18.1225 3.97378 20.0612C7.12253 25.0112 11.6463 27.8712 16.5 27.8712Z" stroke="white" stroke-width="1.5" stroke-linecap="round" stroke-linejoin="round"/>
</svg>
