<svg width="9" height="9" viewBox="0 0 9 9" fill="none" xmlns="http://www.w3.org/2000/svg">
<path d="M4.26669 0.52291C4.32656 0.338648 4.58724 0.338648 4.64711 0.52291L5.54156 3.27572C5.56833 3.35813 5.64512 3.41392 5.73177 3.41392H8.62625C8.81999 3.41392 8.90055 3.66184 8.74381 3.77572L6.40212 5.47706C6.33203 5.52798 6.30269 5.61826 6.32947 5.70066L7.22391 8.45347C7.28378 8.63774 7.07289 8.79096 6.91614 8.67708L4.57446 6.97575C4.50436 6.92482 4.40944 6.92482 4.33935 6.97575L1.99766 8.67708C1.84092 8.79096 1.63002 8.63774 1.6899 8.45347L2.58434 5.70066C2.61111 5.61826 2.58178 5.52798 2.51168 5.47706L0.170001 3.77572C0.0132585 3.66184 0.0938139 3.41392 0.287559 3.41392H3.18204C3.26868 3.41392 3.34547 3.35813 3.37225 3.27572L4.26669 0.52291Z" fill="#F2C938"/>
</svg>
